<svg width="14" height="14" xmlns="http://www.w3.org/2000/svg" xmlns:xlink="http://www.w3.org/1999/xlink">
  <defs>
    <path d="M14.6563308 2.61154176V14.8148148H1.34366924V2.61154176h1.66408269v.55469423c0 .61269833.49669013 1.10938846 1.10938846 1.10938846s1.10938846-.49669013 1.10938846-1.10938846v-.55469423h5.54694235v.55469423c0 .61269833.4966901 1.10938846 1.1093884 1.10938846s1.1093885-.49669013 1.1093885-1.10938846v-.55469423h1.6640827zm-.8082688 3.02704566H2.15193797v8.36795868H13.848062V5.63858742zm-1.4105082-3.58173989c0-.30634916-.248345-.55469423-.5546942-.55469423s-.5546942.24834507-.5546942.55469423v1.10938846c0 .30634917.248345.55469423.5546942.55469423s.5546942-.24834506.5546942-.55469423V2.05684753zM4.67183462 3.16623599c.00227754.16451921-.0685999.32155944-.19348094.42868779-.12488104.10712835-.29087662.153288-.45313405.12600644-.27585232-.05552641-.47139859-.30196828-.46277347-.58322136V2.09805339c-.01122918-.28905729.19111746-.54266507.47545219-.59590009.15917855-.02297555.32049282.02426719.44212915.12948262.12163634.10521543.19161866.25804424.19180712.41887225v1.11572782z" id="a"/>
  </defs>
  <g transform="translate(-1 -1)" fill="none" fill-rule="evenodd">
    <mask id="b" fill="#fff">
      <use xlink:href="#a"/>
    </mask>
    <g mask="url(#b)" fill="#000">
      <path d="M0 0h16v16H0z"/>
    </g>
  </g>
</svg>
